<?xml version="1.0" encoding="utf-8"?>
<!-- Generator: Adobe Illustrator 13.0.2, SVG Export Plug-In . SVG Version: 6.00 Build 14948)  -->
<!DOCTYPE svg PUBLIC "-//W3C//DTD SVG 1.1//EN" "http://www.w3.org/Graphics/SVG/1.1/DTD/svg11.dtd">
<svg version="1.1" id="primary" xmlns="http://www.w3.org/2000/svg" xmlns:xlink="http://www.w3.org/1999/xlink" x="0px" y="0px"
	 width="617.326px" height="208.332px" viewBox="0 0 617.326 208.332" enable-background="new 0 0 617.326 208.332"
	 xml:space="preserve">
<g>
	<g>
		<path fill="#737373" d="M407.042,94.841h-12.178v37.687c0,0.699-0.573,1.272-1.273,1.272h-10.964c-0.7,0-1.273-0.573-1.273-1.272
			V94.841h-10.938c-0.701,0-1.274-0.574-1.274-1.274v-8.501c0-0.701,0.573-1.273,1.274-1.273h35.353c0.7,0,1.273,0.573,1.273,1.273
			V94.841z"/>
		<path fill="#737373" d="M268.843,118.613c0,3.102-0.786,5.854-2.359,8.262c-1.574,2.406-3.844,4.275-6.808,5.609
			c-2.965,1.334-6.442,2-10.433,2c-3.329,0-6.122-0.233-8.38-0.7c-2.258-0.468-4.607-1.283-7.046-2.446V120.57
			c0-0.699,0.523-1.038,1.162-0.752c0,0,4.094,1.834,6.876,2.574c2.781,0.741,5.336,1.111,7.661,1.111
			c2.007,0,3.478-0.347,4.413-1.043c0.935-0.695,1.402-1.591,1.402-2.686c0-0.685-0.188-1.282-0.564-1.795
			c-0.376-0.515-0.98-1.032-1.812-1.558c-0.833-0.524-3.051-1.596-6.653-3.216c-3.261-1.48-5.707-2.918-7.337-4.311
			c-1.631-1.391-2.839-2.986-3.626-4.788c-0.787-1.801-1.18-3.934-1.18-6.396c0-4.606,1.676-8.198,5.028-10.775
			s7.958-3.865,13.819-3.865c5.177,0,10.455,1.197,15.837,3.591l-3.669,9.249c-0.258,0.651-1.008,0.985-1.664,0.743
			c0,0-7.517-2.774-10.914-2.774c-1.756,0-3.033,0.307-3.831,0.923c-0.799,0.616-1.197,1.38-1.197,2.292
			c0,0.98,0.507,1.858,1.522,2.633c1.014,0.775,3.768,2.188,8.261,4.242c4.31,1.938,7.303,4.019,8.979,6.242
			C268.005,112.439,268.843,115.239,268.843,118.613z"/>
		<path fill="#737373" d="M323.604,108.729c0,8.414-2.063,14.812-6.19,19.188c-4.128,4.378-10.171,6.567-18.129,6.567
			c-7.845,0-13.859-2.2-18.044-6.603c-4.185-4.399-6.276-10.809-6.276-19.223c0-8.323,2.081-14.68,6.242-19.069
			c4.161-4.389,10.211-6.584,18.146-6.584c7.958,0,13.99,2.178,18.095,6.533C321.552,93.894,323.604,100.292,323.604,108.729z
			 M289.193,108.729c0,9.668,3.363,14.504,10.091,14.504c3.42,0,5.957-1.176,7.61-3.523s2.48-6.008,2.48-10.979
			c0-4.995-0.838-8.683-2.515-11.065c-1.676-2.382-4.179-3.575-7.508-3.575C292.58,94.088,289.193,98.969,289.193,108.729z"/>
		<path fill="#737373" d="M581.042,132.742l-13.863-20.73c5.656-3.169,8.482-7.65,8.482-13.442c0-9.851-6.795-14.776-20.386-14.776
			h-15.11c-0.701,0-1.273,0.573-1.273,1.273v47.46c0,0.701,0.572,1.273,1.273,1.273h10.963c0.701,0,1.274-0.572,1.274-1.273v-16.924
			h3.42l10.604,18.197h14.05C581.177,133.801,581.433,133.324,581.042,132.742z M554.934,105.443h-2.53V95.294
			c0-0.7,0.571-1.274,1.272-1.274h1.396c4.629,0,6.942,1.722,6.942,5.165C562.014,103.358,559.654,105.443,554.934,105.443z"/>
		<path fill="#737373" d="M471.815,83.793c-0.7,0-1.396,0.56-1.548,1.244L465,108.934c-1.323,6.248-2.133,10.639-2.429,13.17
			c-0.251-1.961-0.753-4.927-1.505-8.895c-0.753-3.968-1.944-9.258-1.944-9.258c-0.153-0.683-0.405-1.802-0.56-2.485l-3.716-16.431
			c-0.153-0.683-0.854-1.242-1.555-1.242h-9.972c-0.7,0-1.403,0.558-1.562,1.24l-4.123,17.676c-0.662,2.623-1.374,5.93-2.138,9.919
			c-0.765,3.99-1.295,7.147-1.591,9.476c-0.457-3.285-2.271-11.992-2.271-11.992c-0.144-0.686-0.382-1.807-0.529-2.49l-4.898-22.583
			c-0.148-0.685-0.844-1.245-1.543-1.245H414.18c-0.699,0-1.136,0.556-0.968,1.236l11.771,47.536
			c0.168,0.68,0.879,1.235,1.579,1.235h13.429c0.701,0,1.396-0.561,1.548-1.243h-0.001h0.002c2.747-12.343,4.312-19.408,4.7-21.195
			c0.397-1.848,0.804-3.87,1.214-6.071c0.411-2.199,0.707-4.041,0.89-5.523c0.229,1.824,0.587,4.093,1.078,6.806
			c0.489,2.714,0.81,4.192,0.81,4.192c0.146,0.686,4.782,21.791,4.782,21.791c0.15,0.684,0.848,1.243,1.549,1.243h13.426
			c0.7,0,1.411-0.557,1.578-1.235l12.01-48.771H471.815L471.815,83.793z"/>
		<g>
			<path fill="#ABABAB" d="M358.975,104.179h-13.708v10.842h14.982v-9.569C360.249,104.752,359.676,104.179,358.975,104.179z"/>
			<path fill="#737373" d="M360.24,83.793h-27.006c-0.7,0-1.273,0.573-1.273,1.273v47.461c0,0.699,0.573,1.272,1.273,1.272h10.759
				c0.7,0,1.272-0.573,1.272-1.272V95.91c0-0.701,0.573-1.273,1.273-1.273h14.975v-9.57
				C361.515,84.366,360.941,83.793,360.24,83.793z"/>
		</g>
		<g>
			<g>
				<path fill="#ABABAB" d="M601.146,113.346h14.981v-9.568c0-0.701-0.572-1.274-1.271-1.274h-13.709L601.146,113.346
					L601.146,113.346z"/>
			</g>
			<g>
				<path fill="#737373" d="M617.326,93.363v-8.296c0-0.701-0.572-1.273-1.273-1.273H588.91c-0.7,0-1.273,0.573-1.273,1.273v47.46
					c0,0.701,0.573,1.272,1.273,1.272h28.416v-9.739c0-0.701-0.572-1.273-1.273-1.273h-13.632c-0.7,0-1.272-0.573-1.272-1.273
					v-8.168v-10.842l0,0l0,0l0,0l0,0V95.91c0-0.7,0.573-1.273,1.273-1.273h13.631C616.754,94.636,617.326,94.063,617.326,93.363z"/>
			</g>
		</g>
		<g>
			<g>
				<path fill="#ABABAB" d="M531.891,132.592l-3.233-9.828h-13.991l2.865,11.037h13.483
					C531.715,133.801,532.109,133.257,531.891,132.592z"/>
			</g>
			<path fill="#737373" d="M516.165,84.798c-0.219-0.666-0.971-1.21-1.672-1.21h-15.479c-0.701,0-1.451,0.545-1.667,1.211
				L481.384,133.8h13.611c0.7,0,1.423-0.553,1.605-1.229c0,0,1.108-4.256,2.551-9.807l29.504-0.002L516.165,84.798z
				 M502.024,111.682c1.771-6.848,3.352-13.001,3.602-14.103c0.604-2.668,1.009-4.583,1.214-5.747
				c0.229,1.255,0.701,3.33,1.419,6.226c0.719,2.896,3.528,13.624,3.528,13.624H502.024L502.024,111.682z"/>
		</g>
	</g>
	<g>
		<path fill="#737373" d="M377.005,53.656c0,3.102-0.787,5.854-2.36,8.261c-1.572,2.406-3.843,4.276-6.807,5.61
			c-2.965,1.333-6.441,2.001-10.433,2.001c-3.33,0-6.123-0.234-8.381-0.701c-2.258-0.467-4.606-1.283-7.047-2.446V55.614
			c0-0.7,0.523-1.04,1.162-0.753c0,0,4.095,1.834,6.876,2.575c2.781,0.741,5.336,1.111,7.662,1.111c2.006,0,3.478-0.348,4.412-1.044
			c0.937-0.694,1.402-1.59,1.402-2.685c0-0.684-0.188-1.282-0.564-1.795c-0.376-0.514-0.979-1.032-1.812-1.557
			c-0.832-0.524-3.05-1.595-6.652-3.215c-3.262-1.482-5.707-2.919-7.337-4.31c-1.632-1.391-2.84-2.987-3.626-4.789
			c-0.787-1.801-1.181-3.934-1.181-6.396c0-4.605,1.676-8.197,5.027-10.774c3.353-2.577,7.959-3.865,13.819-3.865
			c5.176,0,10.455,1.197,15.837,3.591l-3.67,9.249c-0.258,0.651-1.007,0.985-1.664,0.742c0,0-7.516-2.773-10.913-2.773
			c-1.757,0-3.033,0.308-3.831,0.923c-0.799,0.616-1.197,1.38-1.197,2.292c0,0.981,0.508,1.859,1.521,2.634
			c1.015,0.776,3.768,2.189,8.261,4.242c4.311,1.938,7.304,4.019,8.979,6.242C376.167,47.482,377.005,50.281,377.005,53.656z"/>
		<path fill="#737373" d="M465.451,20.063c0.185-0.676,0.908-1.229,1.607-1.229h13.851l-15.992,48.798
			c-0.218,0.666-0.969,1.21-1.67,1.21h-13.358c-0.699,0-1.451-0.545-1.668-1.211l-15.525-47.586
			c-0.218-0.666,0.178-1.211,0.879-1.211h12.64c0.7,0,1.422,0.553,1.604,1.23l6.146,22.886c0.183,0.677,0.458,1.789,0.614,2.472
			c0,0,1.905,8.313,2.042,10.525c0.159-1.596,0.479-3.592,0.957-5.986c0.479-2.395,0.9-4.275,1.267-5.644L465.451,20.063z"/>
		<path fill="#737373" d="M498.615,18.834c0.7,0,1.273,0.573,1.273,1.274v47.461c0,0.7-0.573,1.273-1.273,1.273h-12.307V20.108
			c0-0.701,0.573-1.274,1.273-1.274H498.615z"/>
		<path fill="#737373" d="M271.005,18.835c-0.7,0-1.273,0.573-1.273,1.274v21.336c0,3.055,0.412,10.87,0.412,10.87
			c0.036,0.7,0.021,1.272-0.036,1.272s-0.368-0.508-0.692-1.128L251.85,18.834h-16.417c-0.701,0-1.274,0.573-1.274,1.274v47.46
			c0,0.701,0.573,1.274,1.274,1.274h10.698v-22.54c0-2.919-0.565-11.42-0.565-11.42c-0.047-0.699-0.016-1.271,0.069-1.271
			c0.085,0,0.418,0.508,0.74,1.131l17.114,32.97c0.323,0.621,1.16,1.13,1.86,1.13h15.149c0.7,0,1.273-0.573,1.273-1.274V18.835
			H271.005z"/>
		<path fill="#737373" d="M549.604,68.843c-0.7,0-1.273-0.573-1.273-1.273V20.109c0-0.7,0.573-1.273,1.273-1.273h10.964
			c0.699,0,1.272,0.573,1.272,1.273v36.55c0,0.7,0.573,1.273,1.274,1.273h16.71c0.7,0,1.272,0.573,1.272,1.274v9.637H549.604z"/>
		<path fill="#737373" d="M510.29,68.843c-0.7,0-1.273-0.573-1.273-1.273V20.109c0-0.7,0.573-1.273,1.273-1.273h10.964
			c0.7,0,1.273,0.573,1.273,1.273v36.55c0,0.7,0.572,1.273,1.272,1.273h16.711c0.701,0,1.273,0.573,1.273,1.274v9.637H510.29z"/>
		<g>
			<g>
				<path fill="#ABABAB" d="M601.146,48.39h14.981v-9.57c0-0.701-0.572-1.274-1.271-1.274h-13.709L601.146,48.39L601.146,48.39z"/>
			</g>
			<g>
				<path fill="#737373" d="M617.326,28.406V20.11c0-0.701-0.572-1.273-1.273-1.273H588.91c-0.7,0-1.273,0.573-1.273,1.273v47.461
					c0,0.7,0.573,1.273,1.273,1.273h28.416v-9.741c0-0.701-0.572-1.273-1.273-1.273h-13.632c-0.7,0-1.272-0.573-1.272-1.274V48.39
					V37.547l0,0l0,0l0,0l0,0v-6.594c0-0.7,0.573-1.273,1.273-1.273h13.631C616.754,29.679,617.326,29.106,617.326,28.406z"/>
			</g>
		</g>
		<g>
			<g>
				<path fill="#ABABAB" d="M337.642,67.633l-3.232-9.829h-13.992l2.865,11.038h13.483C337.466,68.843,337.86,68.299,337.642,67.633
					z"/>
			</g>
			<path fill="#737373" d="M321.917,19.84c-0.219-0.666-0.972-1.21-1.672-1.21h-15.479c-0.7,0-1.451,0.544-1.667,1.211
				l-15.963,49.002h13.612c0.7,0,1.423-0.554,1.605-1.23c0,0,1.108-4.257,2.55-9.808h29.505L321.917,19.84z M307.776,46.722
				c1.77-6.848,3.351-13.001,3.601-14.103c0.604-2.668,1.009-4.583,1.214-5.747c0.229,1.254,0.701,3.33,1.42,6.226
				c0.718,2.896,3.527,13.624,3.527,13.624H307.776z"/>
		</g>
		<g>
			<path fill="#737373" d="M427.194,55.195v-36.36h-12.307c-0.7,0-1.272,0.573-1.272,1.274v24.003h-15.7V20.109
				c0-0.701-0.573-1.274-1.274-1.274h-11.03c-0.701,0-1.274,0.573-1.274,1.274v47.46c0,0.701,0.573,1.274,1.274,1.274h12.306V55.195
				H427.194z"/>
			<path fill="#ABABAB" d="M413.615,55.195V67.57c0,0.701,0.572,1.274,1.272,1.274h11.032c0.7,0,1.273-0.573,1.273-1.274V55.195
				H413.615z"/>
		</g>
	</g>
	<g>
		<g>
			<path fill="#737373" d="M363.489,185.109v-36.358h-12.306c-0.7,0-1.273,0.573-1.273,1.272v24.004h-15.7v-24.004
				c0-0.699-0.573-1.272-1.274-1.272h-11.03c-0.7,0-1.274,0.573-1.274,1.272v47.461c0,0.701,0.574,1.273,1.274,1.273h12.306v-13.646
				L363.489,185.109z"/>
			<path fill="#ABABAB" d="M349.91,185.109v12.375c0,0.701,0.573,1.274,1.273,1.274h11.031c0.701,0,1.273-0.573,1.273-1.274v-12.375
				H349.91z"/>
		</g>
		<path fill="#737373" d="M268.843,183.572c0,3.101-0.786,5.854-2.359,8.261c-1.574,2.405-3.844,4.274-6.808,5.608
			c-2.965,1.334-6.442,2.002-10.433,2.002c-3.329,0-6.122-0.234-8.38-0.701c-2.258-0.469-4.607-1.283-7.046-2.446v-10.767
			c0-0.7,0.523-1.039,1.162-0.754c0,0,4.094,1.836,6.876,2.576c2.781,0.74,5.336,1.11,7.661,1.11c2.007,0,3.478-0.347,4.413-1.043
			c0.935-0.694,1.402-1.591,1.402-2.687c0-0.684-0.188-1.281-0.564-1.795s-0.98-1.03-1.812-1.557
			c-0.833-0.523-3.051-1.596-6.653-3.216c-3.261-1.481-5.707-2.918-7.337-4.31c-1.631-1.392-2.839-2.986-3.626-4.789
			c-0.787-1.801-1.18-3.934-1.18-6.396c0-4.605,1.676-8.197,5.028-10.773s7.958-3.865,13.819-3.865
			c5.177,0,10.455,1.197,15.837,3.592l-3.669,9.249c-0.258,0.649-1.008,0.985-1.664,0.741c0,0-7.517-2.772-10.914-2.772
			c-1.756,0-3.033,0.308-3.831,0.923c-0.799,0.616-1.197,1.381-1.197,2.293c0,0.979,0.507,1.857,1.522,2.633
			c1.014,0.775,3.768,2.188,8.261,4.242c4.31,1.938,7.303,4.02,8.979,6.242C268.006,177.396,268.843,180.197,268.843,183.572z"/>
		<path fill="#737373" d="M298.141,159.114c-3.215,0-5.724,1.317-7.524,3.95c-1.802,2.635-2.703,6.266-2.703,10.896
			c0,9.624,3.66,14.435,10.979,14.435c2.212,0,4.356-0.309,6.432-0.924c2.074-0.615,4.161-1.354,6.259-2.223v10.15
			c0,0.699-0.547,1.443-1.215,1.651c0,0-7.678,2.392-12.945,2.392c-7.549,0-13.335-2.188-17.359-6.566
			c-4.025-4.378-6.037-10.706-6.037-18.982c0-5.178,0.975-9.727,2.924-13.648c1.95-3.922,4.755-6.938,8.414-9.047
			c3.66-2.109,7.965-3.164,12.913-3.164c5.404,0,10.569,1.174,15.496,3.523l-3.678,9.449c-0.254,0.652-0.987,0.96-1.631,0.682
			c0,0-2.525-1.09-4.373-1.684C302.245,159.411,300.262,159.114,298.141,159.114z"/>
		<path fill="#737373" d="M419.03,173.688c0,8.414-2.064,14.812-6.191,19.188s-10.171,6.567-18.129,6.567
			c-7.845,0-13.859-2.2-18.043-6.603c-4.186-4.401-6.277-10.809-6.277-19.224c0-8.323,2.081-14.68,6.243-19.069
			c4.161-4.39,10.21-6.585,18.146-6.585c7.958,0,13.989,2.178,18.095,6.533C416.978,158.854,419.03,165.25,419.03,173.688z
			 M384.619,173.688c0,9.668,3.363,14.502,10.091,14.502c3.421,0,5.957-1.174,7.611-3.522c1.651-2.349,2.479-6.008,2.479-10.979
			c0-4.994-0.839-8.683-2.515-11.064s-4.179-3.574-7.508-3.574C388.006,159.047,384.619,163.927,384.619,173.688z"/>
		<path fill="#737373" d="M473.453,173.688c0,8.414-2.064,14.812-6.191,19.188c-4.128,4.378-10.171,6.567-18.129,6.567
			c-7.845,0-13.858-2.2-18.043-6.603c-4.186-4.401-6.277-10.809-6.277-19.224c0-8.323,2.081-14.68,6.242-19.069
			c4.162-4.39,10.211-6.585,18.146-6.585c7.958,0,13.989,2.178,18.095,6.533C471.399,158.854,473.453,165.25,473.453,173.688z
			 M439.042,173.688c0,9.668,3.363,14.502,10.091,14.502c3.421,0,5.957-1.174,7.61-3.522s2.479-6.008,2.479-10.979
			c0-4.994-0.838-8.683-2.515-11.064c-1.676-2.383-4.179-3.574-7.508-3.574C442.429,159.047,439.042,163.927,439.042,173.688z"/>
		<path fill="#737373" d="M481.655,198.759c-0.7,0-1.274-0.573-1.274-1.272v-47.461c0-0.701,0.574-1.274,1.274-1.274h10.964
			c0.7,0,1.272,0.573,1.272,1.274v36.55c0,0.7,0.573,1.272,1.274,1.272h16.71c0.7,0,1.273,0.573,1.273,1.273v9.638H481.655z"/>
	</g>
</g>
<linearGradient id="SVGID_1_" gradientUnits="userSpaceOnUse" x1="-398.876" y1="-243.2822" x2="-588.7598" y2="-164.6297" gradientTransform="matrix(0.9914 -0.1305 -0.1305 -0.9914 568.2614 -162.4451)">
	<stop  offset="0" style="stop-color:#F6921E"/>
	<stop  offset="1" style="stop-color:#EC1C24"/>
</linearGradient>
<path fill="url(#SVGID_1_)" d="M138.333,8.666C73.637-13.629,30.311,7.099,8.346,70.793
	c-21.957,63.742-0.588,106.739,64.112,129.037c64.663,22.011,107.933,1.288,129.801-62.209
	C224.229,73.932,202.908,30.918,138.333,8.666z M190.881,98.579c-14.768,27.305-33.188,52.763-57.942,75.019
	c-7.743,6.963-19.247,15.541-32.06,19.463c-11.926,3.647-23.274,2.646-32.37-1.562c-17.505-8.099-32.259-27.151-44.185-53.923
	c-8.086-18.151-12.816-39.245-11.783-54.929c1-15.143,8.378-31.372,25.686-40.161c16.584-8.42,31.593-8.377,44.761-9.035
	c13.654-0.683,25.532,0.891,38.639,2.613c12.051,1.584,25.232,3.977,37.877,6.939c12.437,2.915,27.011,6.993,34.774,14.425
	C207.454,70.042,197.144,86.998,190.881,98.579z"/>
</svg>
