<svg viewBox="0 0 93.04 70" xmlns="http://www.w3.org/2000/svg"><g fill="#5700ff"><path d="m3360 466.33.94.88c.87.81 2.09.38 2.93-.52s1.21-2.18.33-3l-.94-.88zm3-6.25 2.45 2.28c1.79 1.66 1.56 4-.08 5.72s-3.89 2.13-5.67.46l-2.45-2.28z" transform="translate(-3355.77 -415.27)"/><path d="m3364.36 469.36h8.45v2.05h-8.45z" transform="matrix(.57828487 -.81583491 .81583491 .57828487 -2318.79 2531.45)"/><path d="m3375.53 471.86-1 1.84 1.2.62a.93.93 0 0 0 1.3-.5.92.92 0 0 0 -.34-1.34zm-4.9 5 3.91-7.49 3.1 1.62a2.71 2.71 0 0 1 1.26 3.84 2.66 2.66 0 0 1 -3 1.47l.48 3.54-2.11-1.1-.3-3.34-.16-.09-1.31 2.5z" transform="translate(-3355.77 -415.27)"/><path d="m24.42 66.07 2.63-8.03 5.21 1.7-.56 1.71-3.26-1.07-.5 1.53 2.86.94-.54 1.67-2.87-.94-.47 1.42 3.37 1.11-.56 1.7z"/><path d="m3397.17 483.37a4.33 4.33 0 1 1 .72-4.74l-1.86.93a2.26 2.26 0 1 0 -.35 2.4z" transform="translate(-3355.77 -415.27)"/><path d="m44.49 63.39-.04-1.79 6.41-.15.04 1.79-2.18.05.15 6.66-2.04.05-.16-6.66z"/><path d="m3422.8 480a4.33 4.33 0 1 1 -1.31-4.61l-1.31 1.61a2.26 2.26 0 1 0 .68 2.33z" transform="translate(-3355.77 -415.27)"/><path d="m71.38 64.85-3.65-7.63 1.87-.89 2.88 6.01 2.74-1.32.77 1.62z"/><g transform="translate(-3355.77 -415.27)"><path d="m3432.92 473.73-3-4.43 1.7-1.16 3 4.43a1.28 1.28 0 0 0 2.1-1.44l-3-4.43 1.7-1.16 3 4.43a3.34 3.34 0 0 1 -5.51 3.77"/><path d="m3442.75 465.57 1.19 1.23.94-.91a.87.87 0 0 0 .07-1.28.86.86 0 0 0 -1.28.06zm-.38-2a.74.74 0 0 0 -1-1.07l-.81.79 1 1.06zm1.69-.69a2 2 0 0 1 2.57.31c.85.88 1.22 2.3-.26 3.74l-2.66 2.58-5.88-6.07 2.49-2.41a2.3 2.3 0 0 1 3.44-.17 1.72 1.72 0 0 1 .31 2"/><path d="m3362.14 437.88c-6-1.62-6-4.66-6-6.5 0-2.95 3.59-5.68 7.78-5.68 4 0 8.16 1.75 8.21 6.62h-5.6c0-1.5-1.32-1.75-2.26-1.75-1.28 0-2.14.6-2.09 1.5 0 .6.56 1.2 1.75 1.5l3.38.9c4.83 1.32 5.43 4.53 5.43 5.81 0 4.23-4.44 6.24-8.63 6.24s-8.29-2.44-8.33-6.88h5.56a2.81 2.81 0 0 0 2.95 2.31c1.32 0 2.44-.64 2.44-1.67 0-.85-.51-1.33-2-1.71z"/><path d="m3393.85 435.53v10.56h-5.94v-10.77c0-2.52-1.58-3.85-3.29-3.85s-3.46 1-3.46 4.06v10.56h-5.94v-20h5.94v2.91a5.71 5.71 0 0 1 5.21-3.29c3.16 0 5.3 1.2 6.41 3.5a6.83 6.83 0 0 1 6-3.55c4.74 0 7.69 3 7.69 9.06v11.33h-5.9v-10.6c0-2.61-1.54-4-3.29-4s-3.42 1.15-3.42 4.06"/><path d="m3413 415.27a3.49 3.49 0 1 1 0 7 3.49 3.49 0 1 1 0-7m2.95 30.81h-5.95v-20h5.9v20z"/></g><path d="m63.89 0h5.94v30.81h-5.94z"/><path d="m3447.7 442.46c-2 3-5.73 4.06-9.1 4.06a10.16 10.16 0 0 1 -10.43-10.52 10.06 10.06 0 0 1 10.43-10.34c5.68 0 10.21 4.23 10.21 10.51 0 .51 0 1.33-.09 1.84h-14.62c.3 2.31 2.82 3.33 4.91 3.33a5.52 5.52 0 0 0 4.36-1.88zm-4.87-8.12a4 4 0 0 0 -4.19-3.42 4.36 4.36 0 0 0 -4.44 3.42z" transform="translate(-3355.77 -415.27)"/></g></svg>