<?xml version="1.0" encoding="utf-8"?>
<svg version="1.1" xmlns="http://www.w3.org/2000/svg"  viewBox="0 0 288.01 124.82"><path d="M141.72 124.6h-2.09v-11.33h-3.77v-1.86h9.63v1.85h-3.77zM156.31 124.6h-7.24v-13.19h7.24v1.82h-5.15v3.59H156v1.8h-4.83v4.14h5.15zM166.14 113.08a3.41 3.41 0 0 0-2.84 1.32 7.08 7.08 0 0 0 0 7.3 3.47 3.47 0 0 0 2.88 1.24 7.33 7.33 0 0 0 1.58-.17q.76-.17 1.59-.43v1.85a9.36 9.36 0 0 1-3.42.59 5.39 5.39 0 0 1-4.32-1.75 7.47 7.47 0 0 1-1.51-5 8.3 8.3 0 0 1 .73-3.6 5.31 5.31 0 0 1 2.12-2.36 6.25 6.25 0 0 1 3.25-.82 7.89 7.89 0 0 1 3.63.85l-.75 1.79a10.86 10.86 0 0 0-1.37-.55 4.79 4.79 0 0 0-1.57-.26zM183.78 124.6h-2.1v-5.94h-5.9v5.94h-2.09v-13.19h2.09v5.39h5.9v-5.39h2.1zM199.44 124.6h-2.57l-6.3-10.5h-.07v.59q.12 1.68.12 3.06v6.85h-1.9v-13.19h2.54l6.28 10.44h.05q0-.21-.07-1.51t-.05-2v-6.93h1.92zM215.81 118a7.34 7.34 0 0 1-1.56 5 6.44 6.44 0 0 1-8.88 0 7.38 7.38 0 0 1-1.55-5 7.27 7.27 0 0 1 1.56-5 5.68 5.68 0 0 1 4.46-1.75 5.56 5.56 0 0 1 4.42 1.78 7.33 7.33 0 0 1 1.55 4.97zm-9.81 0a6 6 0 0 0 1 3.69 3.81 3.81 0 0 0 5.38.27l.27-.27a7.67 7.67 0 0 0 0-7.38 3.29 3.29 0 0 0-2.81-1.25 3.36 3.36 0 0 0-2.87 1.26 6 6 0 0 0-1 3.68zM220.18 124.6v-13.19h2.09v11.33h5.42v1.85zM242.89 118a7.34 7.34 0 0 1-1.56 5 6.44 6.44 0 0 1-8.88 0 7.38 7.38 0 0 1-1.55-5 7.27 7.27 0 0 1 1.56-5 5.68 5.68 0 0 1 4.46-1.75 5.56 5.56 0 0 1 4.42 1.78 7.33 7.33 0 0 1 1.55 4.97zm-9.78 0a6 6 0 0 0 1 3.69 3.81 3.81 0 0 0 5.38.27l.27-.27a7.67 7.67 0 0 0 0-7.38 3.29 3.29 0 0 0-2.81-1.25 3.36 3.36 0 0 0-2.84 1.25 6 6 0 0 0-1 3.69zM252.49 117.41h4.71V124a13.3 13.3 0 0 1-2.22.55 15.33 15.33 0 0 1-2.3.16 5.69 5.69 0 0 1-4.48-1.71 7.26 7.26 0 0 1-1.58-5 6.77 6.77 0 0 1 1.78-5 6.58 6.58 0 0 1 4.9-1.8 9.3 9.3 0 0 1 3.8.79l-.74 1.79a7.24 7.24 0 0 0-3.12-.74 4.14 4.14 0 0 0-3.24 1.41 5.22 5.22 0 0 0-1.19 3.62 5.51 5.51 0 0 0 1.07 3.67A3.84 3.84 0 0 0 253 123a9.9 9.9 0 0 0 2.17-.26v-3.4h-2.66zM261.9 124.6v-13.19h2.1v13.17zM276.23 124.6H269v-13.19h7.24v1.82h-5.15v3.59h4.83v1.8h-4.83v4.14h5.15zM288 121a3.35 3.35 0 0 1-1.23 2.76 5.27 5.27 0 0 1-3.41 1 7.94 7.94 0 0 1-3.56-.69v-2a9.53 9.53 0 0 0 1.86.67 7.67 7.67 0 0 0 1.84.24 2.87 2.87 0 0 0 1.84-.49 1.61 1.61 0 0 0 .59-1.31 1.66 1.66 0 0 0-.54-1.25 8.09 8.09 0 0 0-2.24-1.22 5.93 5.93 0 0 1-2.47-1.67 3.6 3.6 0 0 1-.72-2.25 3.19 3.19 0 0 1 1.14-2.59 4.63 4.63 0 0 1 3.06-.95 8.76 8.76 0 0 1 3.66.83l-.67 1.76a7.81 7.81 0 0 0-3-.74 2.3 2.3 0 0 0-1.54.45 1.51 1.51 0 0 0-.53 1.2 1.74 1.74 0 0 0 .21.88 2.18 2.18 0 0 0 .69.69 11.48 11.48 0 0 0 1.74.86 9.46 9.46 0 0 1 2.07 1.13 3.29 3.29 0 0 1 1 1.18A3.64 3.64 0 0 1 288 121z"></path><path d="M62.41 0a62.41 62.41 0 1 0 62.41 62.41A62.41 62.41 0 0 0 62.41 0zM13.67 62.41A48.49 48.49 0 0 1 24.28 32.1H37l17.52 30.31L37 92.72H24.28a48.49 48.49 0 0 1-10.61-30.31zm48.74 48.74a48.45 48.45 0 0 1-21.13-4.82 7.84 7.84 0 0 0 5.9-3.86l15.23-26.39 15.24 26.39a7.84 7.84 0 0 0 5.89 3.86 48.45 48.45 0 0 1-21.13 4.82zm38.13-18.43H87.8L47.18 22.35a7.83 7.83 0 0 0-5.89-3.86 48.71 48.71 0 0 1 42.26 0 7.84 7.84 0 0 0-5.9 3.86l-10.7 18.53 7.9 13.66 13-22.44h12.74a48.59 48.59 0 0 1 0 60.62z" fill="#1ba2cc"></path><path d="M262.73 61.73c0-10.54 0-17.39-3.4-24.72A24 24 0 0 0 249 25.72c-4.59-2.52-10.34-3.8-17.22-3.8-8.65 0-14.79 2.21-19.16 5.31A25.39 25.39 0 0 0 204 38c-3.23 7.51-3.24 14.86-3.24 25 0 10.54 0 17.39 3.4 24.72a24 24 0 0 0 10.38 11.29c4.59 2.52 10.34 3.8 17.22 3.8 8.65 0 14.79-2.21 19.16-5.32a25.38 25.38 0 0 0 8.59-10.82c3.21-7.42 3.22-14.76 3.22-24.94zm-14.32 12.94c-.37 3.64-1.12 6.62-2.66 8.93a10.38 10.38 0 0 1-4.23 3.64c-2.43 1.17-5.6 1.73-9.78 1.74a25 25 0 0 1-9.74-1.51 9.83 9.83 0 0 1-5.16-4.8c-2.15-4.32-2.11-10.7-2.12-19.56 0-5 0-9.3.37-12.94s1.12-6.62 2.66-8.93A10.38 10.38 0 0 1 222 37.6c2.43-1.17 5.6-1.73 9.79-1.74a24.93 24.93 0 0 1 9.76 1.51 9.83 9.83 0 0 1 5.16 4.8c2.15 4.32 2.11 10.7 2.12 19.56 0 5 0 9.29-.38 12.93z"></path><path fill="#0a0b09" d="M200.55 22.75h-15.77l-15.04 26.03-15.05-26.03h-15.75l22.92 39.66-22.92 39.66h15.75l15.05-26.03 15.04 26.03h15.77l-22.93-39.66 22.93-39.66z"></path><g><path fill="#0a0b09" d="M273.82 48.35l.03 53.54h13.65l-.03-45.66-13.65-7.88z"></path><path fill="#1ba2cc" d="M273.82 39.28l13.65 7.87-.01-15.77-13.65-7.88.01 15.78z"></path></g></svg>
