<?xml version="1.0" encoding="UTF-8" standalone="no"?>
<svg
   xmlns:dc="http://purl.org/dc/elements/1.1/"
   xmlns:cc="http://creativecommons.org/ns#"
   xmlns:rdf="http://www.w3.org/1999/02/22-rdf-syntax-ns#"
   xmlns:svg="http://www.w3.org/2000/svg"
   xmlns="http://www.w3.org/2000/svg"
   viewBox="0 0 281.90668 73.293335"
   height="73.293335"
   width="281.90668"
   xml:space="preserve"
   id="svg2"
   version="1.1"><metadata
     id="metadata8"><rdf:RDF><cc:Work
         rdf:about=""><dc:format>image/svg+xml</dc:format><dc:type
           rdf:resource="http://purl.org/dc/dcmitype/StillImage" /></cc:Work></rdf:RDF></metadata><defs
     id="defs6"><clipPath
       id="clipPath20"
       clipPathUnits="userSpaceOnUse"><path
         id="path18"
         d="M 0,0 H 2114 V 549.699 H 0 Z" /></clipPath></defs><g
     transform="matrix(1.3333333,0,0,-1.3333333,0,73.293333)"
     id="g10"><g
       transform="scale(0.1)"
       id="g12"><g
         id="g14"><g
           clip-path="url(#clipPath20)"
           id="g16"><path
             id="path22"
             style="fill:#424247;fill-opacity:1;fill-rule:evenodd;stroke:none"
             d="m 274.852,549.699 c 151.796,0 274.851,-123.051 274.851,-274.847 C 549.703,123.051 426.648,0 274.852,0 123.055,0 0,123.051 0,274.852 0,426.648 123.055,549.699 274.852,549.699 v 0" /><path
             id="path24"
             style="fill:#424247;fill-opacity:1;fill-rule:nonzero;stroke:none"
             d="m 693.32,195.172 c 31.493,0 47.235,26.492 47.235,79.476 0,29.063 -3.559,49.653 -10.672,61.766 -7.117,12.109 -17.942,18.164 -32.473,18.164 -8.476,0 -16.574,-2.801 -24.297,-8.402 -7.722,-5.602 -14.457,-13.094 -20.211,-22.481 v -104.91 c 10.293,-15.742 23.77,-23.613 40.418,-23.613 z m 24.075,207.094 c 30.878,0 53.664,-11.125 68.347,-33.379 14.684,-22.254 22.024,-53.516 22.024,-93.785 0,-24.524 -3.782,-46.473 -11.352,-65.852 -7.566,-19.379 -18.543,-34.59 -32.926,-45.645 -14.383,-11.046 -31.414,-16.574 -51.093,-16.574 -25.129,0 -44.961,8.633 -59.493,25.887 V 61.6523 L 588.414,54.3867 V 394.996 h 56.77 l 3.175,-28.156 c 9.387,11.808 20.137,20.664 32.246,26.57 12.114,5.903 24.375,8.856 36.79,8.856 v 0" /><path
             id="path26"
             style="fill:#424247;fill-opacity:1;fill-rule:nonzero;stroke:none"
             d="m 963.527,401.813 c 7.266,0 15.286,-1.215 24.067,-3.637 l -10.899,-62.215 c -8.476,2.113 -15.593,3.176 -21.343,3.176 -14.231,0 -25.282,-4.996 -33.157,-14.985 -7.871,-9.992 -14.074,-25.285 -18.621,-45.871 V 154.301 H 839.09 v 240.695 h 55.859 l 5.903,-46.777 c 5.753,16.957 14.152,30.129 25.207,39.511 11.05,9.387 23.539,14.083 37.468,14.083 v 0" /><path
             id="path28"
             style="fill:#424247;fill-opacity:1;fill-rule:nonzero;stroke:none"
             d="m 1144.27,298.266 c 0,39.964 -14.38,59.945 -43.15,59.945 -13.32,0 -23.61,-4.922 -30.88,-14.762 -7.27,-9.836 -11.81,-25.808 -13.62,-47.91 h 87.65 z m 64.03,-18.168 c 0,-3.028 -0.45,-11.356 -1.36,-24.977 h -150.32 c 2.12,-21.801 8.02,-37.242 17.71,-46.324 9.69,-9.086 22.86,-13.625 39.51,-13.625 10.3,0 19.98,1.668 29.07,4.996 9.08,3.332 18.92,8.629 29.52,15.895 l 26.79,-36.333 c -26.94,-21.796 -57.37,-32.699 -91.28,-32.699 -37.85,0 -66.91,11.356 -87.2,34.063 -20.29,22.707 -30.427,53.437 -30.427,92.191 0,24.528 4.312,46.551 12.937,66.078 8.63,19.528 21.2,34.895 37.7,46.098 16.5,11.203 36.1,16.805 58.81,16.805 34.21,0 60.86,-10.75 79.93,-32.246 19.08,-21.497 28.61,-51.469 28.61,-89.922 v 0" /><path
             id="path30"
             style="fill:#424247;fill-opacity:1;fill-rule:nonzero;stroke:none"
             d="m 1325.92,402.266 c 33.91,0 62.97,-9.692 87.2,-29.067 l -24.53,-36.785 c -20.28,12.715 -40.26,19.074 -59.95,19.074 -10.59,0 -18.77,-1.968 -24.52,-5.906 -5.75,-3.937 -8.63,-9.234 -8.63,-15.894 0,-4.844 1.29,-8.93 3.86,-12.262 2.57,-3.332 7.42,-6.512 14.53,-9.539 7.12,-3.028 17.79,-6.66 32.02,-10.899 25.43,-6.961 44.36,-16.273 56.77,-27.929 12.41,-11.657 18.62,-27.625 18.62,-47.914 0,-16.047 -4.62,-29.973 -13.85,-41.782 -9.24,-11.808 -21.73,-20.812 -37.47,-27.019 -15.74,-6.211 -33.3,-9.313 -52.68,-9.313 -20.29,0 -38.75,3.102 -55.41,9.313 -16.65,6.207 -30.88,14.758 -42.69,25.656 l 31.79,35.426 c 20.29,-15.742 41.79,-23.617 64.49,-23.617 12.11,0 21.73,2.343 28.84,7.039 7.12,4.691 10.67,11.129 10.67,19.3 0,6.36 -1.36,11.356 -4.08,14.989 -2.73,3.633 -7.72,7.039 -14.99,10.218 -7.27,3.18 -18.62,6.887 -34.06,11.125 -24.22,6.665 -42.16,16.125 -53.82,28.387 -11.65,12.262 -17.48,27.477 -17.48,45.641 0,13.625 3.93,25.887 11.8,36.785 7.88,10.902 19,19.453 33.39,25.66 14.38,6.207 31.11,9.313 50.18,9.313 v 0" /><path
             id="path32"
             style="fill:#424247;fill-opacity:1;fill-rule:nonzero;stroke:none"
             d="m 1543.46,402.266 c 33.91,0 62.97,-9.692 87.2,-29.067 l -24.53,-36.785 c -20.28,12.715 -40.27,19.074 -59.95,19.074 -10.59,0 -18.77,-1.968 -24.52,-5.906 -5.75,-3.937 -8.63,-9.234 -8.63,-15.894 0,-4.844 1.29,-8.93 3.86,-12.262 2.57,-3.332 7.42,-6.512 14.53,-9.539 7.12,-3.028 17.79,-6.66 32.02,-10.899 25.43,-6.961 44.36,-16.273 56.77,-27.929 12.41,-11.657 18.62,-27.625 18.62,-47.914 0,-16.047 -4.62,-29.973 -13.85,-41.782 -9.24,-11.808 -21.73,-20.812 -37.47,-27.019 -15.74,-6.211 -33.3,-9.313 -52.68,-9.313 -20.29,0 -38.75,3.102 -55.41,9.313 -16.65,6.207 -30.88,14.758 -42.69,25.656 l 31.79,35.426 c 20.29,-15.742 41.79,-23.617 64.49,-23.617 12.11,0 21.73,2.343 28.84,7.039 7.12,4.691 10.67,11.129 10.67,19.3 0,6.36 -1.36,11.356 -4.08,14.989 -2.73,3.633 -7.72,7.039 -14.99,10.218 -7.27,3.18 -18.62,6.887 -34.06,11.125 -24.22,6.665 -42.16,16.125 -53.82,28.387 -11.65,12.262 -17.48,27.477 -17.48,45.641 0,13.625 3.93,25.887 11.8,36.785 7.88,10.902 19,19.453 33.38,25.66 14.38,6.207 31.12,9.313 50.19,9.313 v 0" /><path
             id="path34"
             style="fill:#424247;fill-opacity:1;fill-rule:nonzero;stroke:none"
             d="m 1703.32,224.691 c 10.9,0 20.13,-3.785 27.71,-11.351 7.56,-7.57 11.35,-16.656 11.35,-27.25 0,-10.598 -3.79,-19.754 -11.35,-27.477 -7.58,-7.722 -16.81,-11.582 -27.71,-11.582 -10.6,0 -19.68,3.86 -27.25,11.582 -7.57,7.723 -11.35,16.879 -11.35,27.477 0,10.594 3.78,19.68 11.35,27.25 7.57,7.566 16.65,11.351 27.25,11.351 v 0" /><path
             id="path36"
             style="fill:#424247;fill-opacity:1;fill-rule:nonzero;stroke:none"
             d="m 1811.85,518.98 c 11.51,0 20.97,-3.558 28.39,-10.671 7.41,-7.114 11.12,-16.125 11.12,-27.024 0,-10.898 -3.71,-19.906 -11.12,-27.023 -7.42,-7.114 -16.88,-10.668 -28.39,-10.668 -11.5,0 -20.89,3.554 -28.15,10.668 -7.27,7.117 -10.9,16.125 -10.9,27.023 0,10.899 3.63,19.91 10.9,27.024 7.26,7.113 16.65,10.671 28.15,10.671 z m 32.7,-364.679 h -64.49 v 240.695 h 64.49 V 154.301" /><path
             id="path38"
             style="fill:#424247;fill-opacity:1;fill-rule:nonzero;stroke:none"
             d="m 1999.41,354.125 c -16.35,0 -28.54,-6.434 -36.56,-19.301 -8.03,-12.867 -12.04,-32.926 -12.04,-60.176 0,-27.25 4.01,-47.304 12.04,-60.175 8.02,-12.868 20.06,-19.301 36.1,-19.301 16.05,0 28.08,6.433 36.11,19.301 8.02,12.871 12.03,32.925 12.03,60.175 0,27.25 -3.93,47.309 -11.8,60.176 -7.88,12.867 -19.84,19.301 -35.88,19.301 z m 0,48.141 c 36.03,0 64.18,-11.282 84.47,-33.836 20.28,-22.555 30.43,-53.817 30.43,-93.782 0,-25.429 -4.62,-47.761 -13.86,-66.988 -9.23,-19.222 -22.55,-34.137 -39.96,-44.73 -17.41,-10.598 -37.92,-15.899 -61.54,-15.899 -36.03,0 -64.26,11.278 -84.7,33.836 -20.43,22.555 -30.65,53.817 -30.65,93.781 0,25.434 4.62,47.762 13.85,66.985 9.23,19.23 22.56,34.14 39.96,44.734 17.41,10.602 38.08,15.899 62,15.899 v 0" /><path
             id="path40"
             style="fill:#ffffff;fill-opacity:1;fill-rule:evenodd;stroke:none"
             d="M 420.852,153.844 C 411.164,123.266 395.949,99.6484 375.211,82.9961 354.469,66.3438 326.391,56.8086 290.965,54.3867 l -6.813,46.3243 c 23.012,3.023 39.891,8.48 50.637,16.348 4.449,3.257 12.238,11.937 12.309,12.023 v 0 l -82.926,265.914 h 68.574 l 48.141,-198.914 50.867,198.914 h 66.754 L 420.852,153.844 v 0" /><path
             id="path42"
             style="fill:#ffffff;fill-opacity:1;fill-rule:evenodd;stroke:none"
             d="m 180.156,402.262 c 16.043,0 30.504,-2.348 43.371,-7.039 12.868,-4.696 25.051,-12.035 36.559,-22.028 l -28.16,-38.148 c -7.871,6.058 -15.516,10.445 -22.93,13.172 -7.422,2.726 -15.519,4.086 -24.301,4.086 -34.215,0 -51.316,-26.336 -51.316,-79.024 0,-26.64 4.387,-45.715 13.168,-57.218 8.781,-11.504 21.348,-17.258 37.691,-17.258 8.481,0 16.203,1.289 23.164,3.863 6.965,2.57 15.141,6.883 24.524,12.937 l 28.16,-40.417 c -23.012,-18.77 -49.352,-28.157 -79.02,-28.157 -23.621,0 -44.132,5.149 -61.539,15.442 -17.414,10.293 -30.8082,24.902 -40.195,43.824 -9.3828,18.926 -14.0781,41.101 -14.0781,66.535 0,25.43 4.6953,47.91 14.0781,67.438 9.3868,19.531 22.781,34.746 40.195,45.64 17.407,10.903 37.618,16.352 60.629,16.352 v 0" /></g></g></g></g></svg>