<svg id="Layer_1" data-name="Layer 1" xmlns="http://www.w3.org/2000/svg" viewBox="0 0 609.92 240.76"><defs><style>.cls-1{fill:#5c5c5c;}</style></defs><title>ugjs-skyline</title><path class="cls-1" d="M610.65,518.82H.74V488.36c2.8.75,3-1.08,3-3.06,0-8.43.15-16.86,0-25.28-.07-2.9,1-3.68,3.67-3.6,6.91.21,13.82.11,20.72.34,2.62.09,3.5-.85,3.23-3.32-.22-2.12-.37-4.25-.44-6.37Q29,392,27.06,336.91c-.27-7.78-.21-7.78,7.73-8h.31c7.68-.43,6.82.56,7-7a22.07,22.07,0,0,0,0-2.44c-.19-2.09.66-2.81,2.81-2.82,3.46,0,6.93.61,10.38-1.21,1.67-.89,4.19-.36,6.3-.13.55.06,1.29,1.36,1.36,2.15a41.13,41.13,0,0,1,0,6.08c-.15,2.67.76,3.86,3.67,3.73,3.07-.14,6.18.25,9.27.41.06,1,.13,1.5.12,2-.33,19.28-.73,38.56-1,57.84-.33,24.87-.55,49.74-.82,74.6,0,3.25-.23,6.5,0,9.74,0,.88,1.24,2.45,1.86,2.43,2.78-.12,2.85,1.48,2.83,3.49,0,4.36,0,8.73.15,13.08,0,.66,1.21,1.83,1.69,1.76a3.19,3.19,0,0,0,2-1.76,6.64,6.64,0,0,0,0-2.71c-.33-7.3-.72-14.59-1-21.9,0-1,.5-2.91,1.07-3,2.72-.61,2.54-2.5,2.51-4.46,0-2.84-.08-5.68-.14-8.52l-.9-41.1c0-1.44-.28-2.82,2.09-2.69,7.5.41,15,.57,22.53.92s7.51.4,7.78-7.11a4.14,4.14,0,0,0,0-.61c-.09-1.77.67-2.6,2.53-2.54,2.23.07,4.47-.07,6.7-.07,6.18,0,6.18,0,5.61,6.17-.52,5.66-.52,5.66,5.15,5.76.31,0,.61,0,.92,0l41.43,1.61c1.48.06,2.49.24,2.41,2.2q-1.08,25.84-2,51.7c-.14,3.83,0,7.66,0,11.63a39.21,39.21,0,0,1,4,.8c.66.2,1.74.85,1.71,1.23-.27,4,2,5.18,6.31,4.92,0,4.83-.09,9.36.08,13.89,0,.85,1.11,2.27,1.81,2.34s2-.86,2.59-1.66.54-2.56,1.28-3c2.58-1.4,2.13-3.67,2.11-5.83-.11-8.83-.32-17.66-.41-26.49-.07-6.89-1.21-6.19,5.94-6.33a7,7,0,0,0,2.7-.26c.8-.37,1.94-1.25,1.94-1.9,0-3,1.77-3.15,4-3.05,1.62.08,3.25,0,4.88,0,4.07,0,4.2-.09,4-4q-1.59-31.77-3.24-63.53c-.35-6.58-.2-5.44,5-5.71,1.16-.06,3.22-1.15,3.22-1.78,0-2.48,1.07-3.62,3.35-4.14.61-.14,1.12-.84,1.65-1.31,4.39-3.92,8.84-7.78,13.14-11.8,1.83-1.72,3.26-1.87,5.23-.22,4.29,3.58,8.69,7,13.12,10.42a6.51,6.51,0,0,0,3.44,1.62c2.35,0,3.14,1,2.82,3.15-.36,2.41.88,3.28,3.07,3.37,1.6.06,3.19.21,5.13.34.7,32.51,1.4,64.81,2.1,97.14h5.48a51.83,51.83,0,0,1-.31-7.23c.2-2.26,1.44-4.47,1.47-6.72.23-21.62.31-43.24.43-64.86,0-1.19,0-2.39,0-2.72,1.68-1.37,3.4-2.05,3.69-3.12,1.15-4.3-3.27-2.79-5.93-4.63a28.58,28.58,0,0,1,4.12-.8c4.07-.08,8.13-.11,12.2,0,2.46,0,3.52-.87,3.34-3.42-.22-3-.12-6.09-.31-9.13-.18-2.88-.29-5.52,3.75-5.57.6,0,1.19-.68,1.27-.73,1.69.37,3,1.1,4.07.81,2.17-.6,2.87.27,3,2.12.21,4.05.07,8.14.62,12.14.39,2.79,1.66,5.47,2.6,8.17.41,1.15,1.37,2.21,1.44,3.35.35,5.67.48,11.35.7,17,.43,10.85.83,21.7,1.33,32.55.06,1.21.56,3.33,1.14,3.43,3.09.54,2.46,2.7,2.48,4.65.08,6.49.12,13,.25,19.48,0,2.14.8,3.57,3.69,2.31,0-2.66-.1-5.39.05-8.1a9.36,9.36,0,0,1,1.06-2.95c.55-1.28,1.68-2.53,1.68-3.79,0-6.08-.29-12.17-.59-18.25Q332,416,330.8,393.64c-.1-1.8.05-3.19,2.34-2.66,2.9.66,3.7-1.07,4.29-3.36,1.59-6.19,3.35-12.34,4.86-18.55.45-1.83,1.2-2.48,3.06-2.48,4.88,0,9.76-.32,14.63-.23a4.78,4.78,0,0,1,3.4,1.85c4.09,6.29,8,12.71,11.9,19.12a5.08,5.08,0,0,1,.67,2.29c.4,7.49.78,15,1.08,22.49.59,14.81,1.1,29.61,1.75,44.41a3.31,3.31,0,0,0,1.67,2.54c1.48.4,3.1.46,3.9-1.73a41.7,41.7,0,0,1,3.44-6.54c.22-.39,1-.56,1.58-.61a17.32,17.32,0,0,1,4.25-.1,3,3,0,0,1,2.15,1.63c.63,2.88,2.39,3.36,5.3,2.83-3.59-33.71-7.18-67.33-10.8-101.31h9.33a18.82,18.82,0,0,0,.1-2.35c-.9-9.27-1.92-18.53-2.7-27.82-.55-6.39-2.08-12.78-.31-19.24.79-2.92,1.24-5.93,1.87-8.89q1.79-8.44,3.6-16.87c2.06,10.64,3.83,21.2,5.35,31.81.44,3.05,1.73,3.85,4.71,3.8,18.29-.3,36.59-.5,54.88-.49,3.23,0,3.85-1.21,4-4,.64-9.79,1.49-19.57,2.26-29.35a61.18,61.18,0,0,1,2.69,9.32c1.53,6.9,3.81,13.75,4.34,20.73.86,11.32.59,22.72.73,34.08.07,4.79,0,4.79,4.79,5.12.17,0,.34.18.91.5V465.14c.89.18,1.38.3,1.88.39,3.43.6,3.79.3,3.56-3.09-.09-1.37-.24-2.74-.34-3.88H508.8v8.5l11.54.86c-.24,5.4-.4,10.47-.71,15.52-.13,2,.64,2.65,2.6,2.64s4.19.34,6.42.54c.3,2,.45,3.86.88,5.6.2.85.83,2.15,1.44,2.26,2.45.42,5,.45,7.82.65,0-1.54.05-2.63,0-3.72-.38-7-.8-14-1.17-21-.61-11.34-1.25-22.67-1.75-34-.13-2.7-.4-5.62.43-8.1,5.82-17.47,11.94-34.84,17.88-52.26.62-1.81,1.63-2.24,3.37-2.16,5.88.24,11.78.51,17.67.48,2.33,0,3.36.86,4.17,2.92,7,17.61,14,35.17,21,52.77a14.13,14.13,0,0,1,.94,4.68c.32,8.82.48,17.65.79,26.47.25,7.3.61,14.59,1,21.89a6.1,6.1,0,0,0,1,2.23c.49.9,1.4,1.73,1.51,2.66.36,3.09.44,6.21.63,9.36l4.34.54Z" transform="translate(-0.74 -278.06)"/></svg>