<?xml version="1.0" encoding="UTF-8" standalone="no"?>
<svg
   xmlns:dc="http://purl.org/dc/elements/1.1/"
   xmlns:cc="http://creativecommons.org/ns#"
   xmlns:rdf="http://www.w3.org/1999/02/22-rdf-syntax-ns#"
   xmlns:svg="http://www.w3.org/2000/svg"
   xmlns="http://www.w3.org/2000/svg"
   viewBox="0 0 173.62666 54.226665"
   height="54.226665"
   width="173.62666"
   xml:space="preserve"
   id="svg2"
   version="1.1"><metadata
     id="metadata8"><rdf:RDF><cc:Work
         rdf:about=""><dc:format>image/svg+xml</dc:format><dc:type
           rdf:resource="http://purl.org/dc/dcmitype/StillImage" /></cc:Work></rdf:RDF></metadata><defs
     id="defs6"><clipPath
       id="clipPath20"
       clipPathUnits="userSpaceOnUse"><path
         id="path18"
         d="M 0,0 H 1302 V 406.695 H 0 Z" /></clipPath></defs><g
     transform="matrix(1.3333333,0,0,-1.3333333,0,54.226667)"
     id="g10"><g
       transform="scale(0.1)"
       id="g12"><g
         id="g14"><g
           clip-path="url(#clipPath20)"
           id="g16"><path
             id="path22"
             style="fill:#214173;fill-opacity:1;fill-rule:nonzero;stroke:none"
             d="m 1045.39,65.1641 v -0.5157 l -0.7,0.5157 h 0.7" /><path
             id="path24"
             style="fill:#214173;fill-opacity:1;fill-rule:nonzero;stroke:none"
             d="m 1267.59,268.359 v -0.371 l -0.49,0.371 h 0.49" /><path
             id="path26"
             style="fill:#f6af2c;fill-opacity:1;fill-rule:nonzero;stroke:none"
             d="m 204.176,406.699 c 1.914,0 3.722,0 5.637,-0.109 l -0.313,-6.063 -3.723,-71.847 -1.062,-21.582 -7.969,-143.375 -2.238,-39.973 c -9.141,3.723 -18.387,6.594 -27.742,8.828 l 5,116.492 L 125.32,181.355 96.6172,140.02 c -33.3789,-0.43 -63.0274,-5.957 -82.9102,-10.848 -8.92575,22.754 -13.71090625,47.516 -13.71090625,73.34 0,112.769 91.41800625,204.187 204.17990625,204.187" /><path
             id="path28"
             style="fill:#f36827;fill-opacity:1;fill-rule:nonzero;stroke:none"
             d="m 229.586,404.961 c 100.762,-12.324 178.672,-98.32 178.672,-202.481 0,-52.824 -20.086,-101.191 -53.145,-137.3237 -0.847,-0.9571 -1.699,-1.9141 -2.761,-2.8711 L 229.586,404.961" /><path
             id="path30"
             style="fill:#214173;fill-opacity:1;fill-rule:nonzero;stroke:none"
             d="m 276.082,14.6016 c -5.051,-1.9844 -12.305,-4.3985 -21.309,-6.80863 -0.214,0 -0.441,-0.22656 -0.656,-0.22656 -37.117,-10.97266 -85,-6.30469 -99.277,-3.07422 -1.297,0.30469 -2.195,0.4414 -2.195,0.4414 C 115.523,14.375 82.5859,34.1484 56.8828,60.9375 c 10.9844,6.1523 36.2383,15.1563 67.2072,14.5 39.539,-0.8789 57.762,-15.5937 75.117,-25.2617 22.84,-12.957 44.805,-32.5 76.875,-35.5742" /><path
             id="path32"
             style="fill:#214173;fill-opacity:1;fill-rule:nonzero;stroke:none"
             d="m 620.426,282.551 -53.68,-127.699 -50.019,127.699 h -53.438 l 74.024,-166.789 c 7.996,-18.0081 25.847,-29.6175 45.554,-29.6175 v 0 l 89.289,196.4065 h -51.73" /><path
             id="path34"
             style="fill:#214173;fill-opacity:1;fill-rule:nonzero;stroke:none"
             d="m 1132.67,168.914 -0.64,0.715 c 0.13,-0.195 0.39,-0.344 0.6,-0.574 -0.05,-0.09 -0.05,-0.09 0.04,-0.141" /><path
             id="path36"
             style="fill:#214173;fill-opacity:1;fill-rule:nonzero;stroke:none"
             d="m 1158.41,190.137 c 0,-44.129 15.89,-66.192 47.68,-66.192 14.58,0 26.13,5.735 34.69,17.2 8.52,11.472 12.8,27.8 12.8,48.992 0,43.508 -15.83,65.254 -47.49,65.254 -14.59,0 -26.18,-5.735 -34.78,-17.2 -8.61,-11.472 -12.9,-27.488 -12.9,-48.054 z m -48.62,0 c 0,30.539 8.82,55.41 26.46,74.609 17.63,19.188 40.91,28.789 69.84,28.789 30.41,0 54.03,-9.219 70.86,-27.676 16.83,-18.449 25.24,-43.691 25.24,-75.722 0,-31.914 -8.57,-57.278 -25.71,-76.106 -17.14,-18.8162 -40.6,-28.2302 -70.39,-28.2302 -30.42,0 -54.08,9.5039 -70.97,28.5082 -16.89,19.011 -25.33,44.293 -25.33,75.828" /><path
             id="path38"
             style="fill:#214173;fill-opacity:1;fill-rule:nonzero;stroke:none"
             d="m 1087.55,273.594 -20.34,-35.528 c -11.14,10.508 -26.09,15.774 -44.82,15.774 -17.99,0 -32.206,-5.988 -42.648,-17.949 -10.449,-11.977 -15.672,-28.528 -15.672,-49.68 0,-42.676 20.321,-64.016 60.98,-64.016 17.59,0 33.11,5.825 46.53,17.485 l 17.48,-37.422 c -13.81,-8.6135 -25.87,-14.0666 -36.19,-16.34 -10.31,-2.2852 -22.5,-3.418 -36.56,-3.418 -31.419,0 -56.197,9.1406 -74.38,27.441 -18.164,18.301 -27.254,43.731 -27.254,76.27 0,32.043 9.941,57.937 29.824,77.695 19.883,19.754 46.98,29.629 81.31,29.629 23.67,0 44.26,-6.648 61.74,-19.941" /><path
             id="path40"
             style="fill:#214173;fill-opacity:1;fill-rule:nonzero;stroke:none"
             d="m 727.059,188.801 c 0,-18.457 4.941,-33.488 14.832,-45.09 10.148,-11.731 22.929,-17.598 38.359,-17.598 16.477,0 29.785,5.664 39.941,17 10.157,11.739 15.227,26.633 15.227,44.7 0,18.054 -5.07,32.949 -15.227,44.687 -10.156,11.465 -23.328,17.195 -39.55,17.195 -15.293,0 -28.075,-5.8 -38.36,-17.398 -10.144,-11.731 -15.222,-26.234 -15.222,-43.496 z M 877.34,89.2773 c -25.574,-1.0468 -44.492,7.7032 -44.688,22.7927 v 0 c -18.32,-17.1286 -38.035,-25.7028 -59.121,-25.7028 -26.629,0 -48.652,9.6289 -66.054,28.8748 -17.266,19.641 -25.899,44.153 -25.899,73.559 0,28.863 8.633,52.926 25.899,72.176 17.277,19.238 38.886,28.867 64.863,28.867 22.414,0 42.512,-9.231 60.312,-27.688 v 22.348 H 877.34 V 89.2773" /><path
             id="path42"
             style="fill:#214173;fill-opacity:1;fill-rule:nonzero;stroke:none"
             d="m 844.383,6.44531 h 6.297 V 45.8672 h -6.297 v 5.5195 h 35 V 39.4336 h -6.231 v 5.793 H 857.84 V 28.4844 h 17.461 V 22.6172 H 857.84 V 6.44531 h 6.875 V 0.859375 H 844.383 V 6.44531" /><path
             id="path44"
             style="fill:#214173;fill-opacity:1;fill-rule:nonzero;stroke:none"
             d="m 884.598,6.23047 h 5.437 V 30.1289 c 0,1.0703 -0.566,1.5703 -1.57,1.5703 h -4.512 v 5.3711 h 8.164 c 3.145,0 4.649,-1.289 4.649,-4.2187 v -2.293 c 0,-1.4258 -0.137,-2.5 -0.137,-2.5 h 0.137 c 1.648,5.293 5.867,9.4414 11.453,9.4414 0.929,0 1.789,-0.1484 1.789,-0.1484 v -6.8633 c 0,0 -0.86,0.2148 -2.004,0.2148 -7.734,0 -11.024,-7.8047 -11.024,-14.8828 V 6.23047 h 5.372 V 0.859375 H 884.598 V 6.23047" /><path
             id="path46"
             style="fill:#214173;fill-opacity:1;fill-rule:nonzero;stroke:none"
             d="m 940.855,22.7539 c -0.214,6.3789 -4.082,9.668 -8.66,9.668 -5.293,0 -9.59,-3.5821 -10.597,-9.668 z m -8.523,15.1758 c 10.313,0 15.672,-7.5859 15.672,-16.9609 0,-0.9297 -0.215,-2.6485 -0.215,-2.6485 h -26.473 c 0.43,-8.0156 6.082,-12.30467 12.52,-12.30467 6.297,0 10.809,4.07417 10.809,4.07417 l 2.863,-5.07808 c 0,0 -5.442,-5.01172 -14.102,-5.01172 -11.379,0 -19.179,8.23047 -19.179,18.9648 0,11.5235 7.8,18.9649 18.105,18.9649" /><path
             id="path48"
             style="fill:#214173;fill-opacity:1;fill-rule:nonzero;stroke:none"
             d="m 980.574,22.7539 c -0.215,6.3789 -4.082,9.668 -8.664,9.668 -5.293,0 -9.59,-3.5821 -10.594,-9.668 z m -8.527,15.1758 c 10.312,0 15.676,-7.5859 15.676,-16.9609 0,-0.9297 -0.215,-2.6485 -0.215,-2.6485 h -26.477 c 0.43,-8.0156 6.086,-12.30467 12.52,-12.30467 6.301,0 10.812,4.07417 10.812,4.07417 l 2.86,-5.07808 c 0,0 -5.438,-5.01172 -14.102,-5.01172 -11.375,0 -19.18,8.23047 -19.18,18.9648 0,11.5235 7.805,18.9649 18.106,18.9649" /><path
             id="path50"
             style="fill:#214173;fill-opacity:1;fill-rule:nonzero;stroke:none"
             d="m 1021.94,6.44531 h 6.37 V 22.2578 l -14.17,23.6094 h -4.8 v 5.5195 h 17.4 v -5.5195 h -5.3 l 9.38,-15.8789 c 0.56,-1.0742 0.99,-2.1445 0.99,-2.1445 h 0.15 c 0,0 0.43,1.0703 1.07,2.1445 l 9.38,15.8789 h -5.23 v 5.5195 h 17.25 v -5.5195 h -4.79 L 1035.47,22.2578 V 6.44531 h 6.36 V 0.859375 h -19.89 V 6.44531" /><path
             id="path52"
             style="fill:#214173;fill-opacity:1;fill-rule:nonzero;stroke:none"
             d="m 1068.75,6.01563 c 6.79,0 12.45,5.43747 12.45,13.01567 0,7.5234 -5.66,12.8828 -12.45,12.8828 -6.88,0 -12.45,-5.3594 -12.45,-12.8828 0,-7.5782 5.57,-13.01567 12.45,-13.01567 z m 0,31.91407 c 10.8,0 19.53,-7.9414 19.53,-18.8984 C 1088.28,8.01953 1079.55,0 1068.75,0 c -10.81,0 -19.54,8.01953 -19.54,19.0313 0,10.957 8.73,18.8984 19.54,18.8984" /><path
             id="path54"
             style="fill:#214173;fill-opacity:1;fill-rule:nonzero;stroke:none"
             d="m 1096.86,31.6992 h -6.07 v 5.3711 h 13.02 V 15.3125 c 0,-5.0078 1,-9.01172 6.79,-9.01172 7.24,0 11.74,6.94142 11.74,14.09762 v 11.3008 h -6.08 v 5.3711 h 13.02 V 7.73438 c 0,-1.00782 0.58,-1.58204 1.58,-1.58204 h 3.8 V 0.859375 h -7.52 c -3.15,0 -4.58,1.437505 -4.58,4.003905 v 1.58203 c 0,1.21094 0.14,2.14063 0.14,2.14063 h -0.14 C 1121.84,6.66016 1117.76,0 1108.75,0 c -7.81,0 -11.89,4.29688 -11.89,13.8867 v 17.8125" /><path
             id="path56"
             style="fill:#214173;fill-opacity:1;fill-rule:nonzero;stroke:none"
             d="m 1140.51,6.23047 h 5.44 V 30.1289 c 0,1.0703 -0.56,1.5703 -1.57,1.5703 h -4.51 v 5.3711 h 8.16 c 3.15,0 4.65,-1.289 4.65,-4.2187 v -2.293 c 0,-1.4258 -0.13,-2.5 -0.13,-2.5 h 0.13 c 1.65,5.293 5.87,9.4414 11.46,9.4414 0.93,0 1.78,-0.1484 1.78,-0.1484 v -6.8633 c 0,0 -0.85,0.2148 -2,0.2148 -7.73,0 -11.02,-7.8047 -11.02,-14.8828 V 6.23047 h 5.37 V 0.859375 h -17.76 V 6.23047" /><path
             id="path58"
             style="fill:#214173;fill-opacity:1;fill-rule:nonzero;stroke:none"
             d="m 1170.08,12.5195 h 6.08 v -2.3554 c 0,-3.07426 4.3,-4.51176 8.3,-4.51176 4.08,0 7.3,1.65235 7.3,4.65236 0,3.6484 -4.01,4.793 -9.02,6.5898 -5.36,2 -11.31,4.4336 -11.31,11.0157 0,7.1562 7.09,10.0195 13.39,10.0195 5.08,0 12.52,-2 12.52,-7.3047 v -4.3633 h -6.08 v 2.3594 c 0,2.2187 -2.86,3.7227 -6.37,3.7227 -3.44,0 -6.44,-1.4258 -6.44,-4.3672 0,-3.4258 4.01,-4.8633 8.37,-6.3672 5.58,-1.8516 11.96,-4.2149 11.96,-10.9453 C 1198.78,3.78906 1192.48,0 1184.25,0 c -6.59,0 -14.17,2.9375 -14.17,8.66016 v 3.85934" /><path
             id="path60"
             style="fill:#214173;fill-opacity:1;fill-rule:nonzero;stroke:none"
             d="m 1231.2,22.7539 c -0.22,6.3789 -4.08,9.668 -8.66,9.668 -5.3,0 -9.59,-3.5821 -10.6,-9.668 z m -8.53,15.1758 c 10.32,0 15.68,-7.5859 15.68,-16.9609 0,-0.9297 -0.22,-2.6485 -0.22,-2.6485 h -26.47 c 0.43,-8.0156 6.08,-12.30467 12.52,-12.30467 6.3,0 10.81,4.07417 10.81,4.07417 l 2.86,-5.07808 c 0,0 -5.44,-5.01172 -14.1,-5.01172 -11.38,0 -19.18,8.23047 -19.18,18.9648 0,11.5235 7.8,18.9649 18.1,18.9649" /><path
             id="path62"
             style="fill:#214173;fill-opacity:1;fill-rule:nonzero;stroke:none"
             d="m 1247.44,46.0156 h -6.02 v 5.3711 h 12.96 V 11.5938 c 0,-3.07817 0.71,-5.14849 3.86,-5.14849 1.15,0 1.93,0.07032 1.93,0.07032 l -0.07,-5.726567 c 0,0 -1.43,-0.144532 -3.07,-0.144532 -5.16,0 -9.59,2.082029 -9.59,10.515669 v 34.8554" /><path
             id="path64"
             style="fill:#214173;fill-opacity:1;fill-rule:nonzero;stroke:none"
             d="m 1265.76,6.23047 h 5.65 V 31.6992 h -6.01 v 5.3711 h 6.01 v 1.7852 c 0,11.5937 8.73,13.0312 13.02,13.0312 1.93,0 3.29,-0.2148 3.29,-0.2148 v -5.7266 c 0,0 -0.93,0.2149 -2.57,0.2149 -2.29,0 -6.79,-0.6407 -6.79,-7.1563 v -1.9336 h 8.73 v -5.3711 h -8.73 V 6.23047 h 6.65 V 0.859375 h -19.25 V 6.23047" /></g></g></g></g></svg>